<svg width="24" height="24" viewBox="0 0 24 24" fill="none" xmlns="http://www.w3.org/2000/svg">
<path d="M10.852 14.772L10.469 15.695M10.852 14.772C11.216 14.9228 11.6058 15.0003 11.9998 15.0003C12.3938 15.0003 12.784 14.9228 13.148 14.772M10.852 14.772C10.488 14.6212 10.1569 14.4 9.87833 14.1214C9.59974 13.8428 9.37876 13.512 9.228 13.148M13.148 14.772C13.512 14.6212 13.8428 14.4003 14.1214 14.1217C14.4 13.8431 14.6211 13.5123 14.7719 13.1483M13.148 14.772L13.53 15.696M14.7719 13.1483C14.9227 12.7843 15.0003 12.3942 15.0003 12.0002C15.0003 11.6062 14.9228 11.216 14.772 10.852M14.7719 13.1483L15.695 13.531M14.772 10.852C14.6212 10.488 14.4003 10.1572 14.1217 9.87859C13.8431 9.59997 13.5123 9.37894 13.1483 9.22814M14.772 10.852L15.695 10.469M13.1483 9.22814C12.7843 9.07734 12.3942 8.99971 12.0002 8.99969C11.6062 8.99966 11.216 9.07724 10.852 9.228M13.1483 9.22814L13.531 8.305M10.852 9.228L10.469 8.305M10.852 9.228C10.488 9.37876 10.1572 9.59974 9.87859 9.87833C9.59997 10.1569 9.37894 10.4877 9.22814 10.8517M9.228 13.148C9.07724 12.784 8.99966 12.3938 8.99969 11.9998C8.99971 11.6058 9.07734 11.2157 9.22814 10.8517M9.228 13.148L8.305 13.531M9.22814 10.8517L8.305 10.469M4.5 10H4C3.46957 10 2.96086 9.78929 2.58579 9.41421C2.21071 9.03914 2 8.53043 2 8V4C2 3.46957 2.21071 2.96086 2.58579 2.58579C2.96086 2.21071 3.46957 2 4 2H20C20.5304 2 21.0391 2.21071 21.4142 2.58579C21.7893 2.96086 22 3.46957 22 4V8C22 8.53043 21.7893 9.03914 21.4142 9.41421C21.0391 9.78929 20.5304 10 20 10H19.5M4.5 14H4C3.46957 14 2.96086 14.2107 2.58579 14.5858C2.21071 14.9609 2 15.4696 2 16V20C2 20.5304 2.21071 21.0391 2.58579 21.4142C2.96086 21.7893 3.46957 22 4 22H20C20.5304 22 21.0391 21.7893 21.4142 21.4142C21.7893 21.0391 22 20.5304 22 20V16C22 15.4696 21.7893 14.9609 21.4142 14.5858C21.0391 14.2107 20.5304 14 20 14H19.5M6 18H6.01M6 6H6.01" stroke="black" stroke-width="2" stroke-linecap="round" stroke-linejoin="round"/>
</svg>
